2014001_C4_05_grf
version=1
nRows=12
nColumns=19
inDegrees=no
endheader
time	ground_force_1_vx	ground_force_1_vy	ground_force_1_vz	ground_force_1_px	ground_force_1_py	ground_force_1_pz	ground_force_1_mx	ground_force_1_my	ground_force_1_mz	ground_force_2_vx	ground_force_2_vy	ground_force_2_vz	ground_force_2_px	ground_force_2_py	ground_force_2_pz	ground_force_2_mx	ground_force_2_my	ground_force_2_mz
      0.39000000	      0.00000000	      0.00000000	      0.00000000	      0.00000000	      0.00000000	      0.00000000	      0.00000000	      0.00000000	      0.00000000	     -1.69979304	    490.14003575	    -33.19912255	     -0.77648832	     -0.00200000	      0.31735033	      0.00000000	      1.18433362	      0.00000000
      0.39100000	      0.00000000	      0.00000000	      0.00000000	      0.00000000	      0.00000000	      0.00000000	      0.00000000	      0.00000000	      0.00000000	     -1.30089291	    492.12399870	    -33.09826031	     -0.77631443	     -0.00200000	      0.31720754	      0.00000000	      1.23845812	      0.00000000
      0.39200000	      0.00000000	      0.00000000	      0.00000000	      0.00000000	      0.00000000	      0.00000000	      0.00000000	      0.00000000	      0.00000000	     -0.89445797	    494.15402859	    -32.99489245	     -0.77614220	     -0.00200000	      0.31706318	      0.00000000	      1.29305779	      0.00000000
      0.39300000	      0.00000000	      0.00000000	      0.00000000	      0.00000000	      0.00000000	      0.00000000	      0.00000000	      0.00000000	      0.00000000	     -0.47814104	    496.24199420	    -32.88898207	     -0.77597219	     -0.00200000	      0.31691711	      0.00000000	      1.34817544	      0.00000000
      0.39400000	      0.00000000	      0.00000000	      0.00000000	      0.00000000	      0.00000000	      0.00000000	      0.00000000	      0.00000000	      0.00000000	     -0.05355442	    498.37652966	    -32.78151825	     -0.77580407	     -0.00200000	      0.31676986	      0.00000000	      1.40364651	      0.00000000
      0.39500000	      0.00000000	      0.00000000	      0.00000000	      0.00000000	      0.00000000	      0.00000000	      0.00000000	      0.00000000	      0.00000000	      0.38181493	    500.56957081	    -32.67273344	     -0.77563845	     -0.00200000	      0.31662137	      0.00000000	      1.45948315	      0.00000000
      0.39600000	      0.00000000	      0.00000000	      0.00000000	      0.00000000	      0.00000000	      0.00000000	      0.00000000	      0.00000000	      0.00000000	      0.82616019	    502.80945003	    -32.56340101	     -0.77547493	     -0.00200000	      0.31647208	      0.00000000	      1.51555091	      0.00000000
      0.39700000	      0.00000000	      0.00000000	      0.00000000	      0.00000000	      0.00000000	      0.00000000	      0.00000000	      0.00000000	      0.00000000	      1.28214975	    505.10791875	    -32.45402053	     -0.77531417	     -0.00200000	      0.31632205	      0.00000000	      1.57183136	      0.00000000
      0.39800000	      0.00000000	      0.00000000	      0.00000000	      0.00000000	      0.00000000	      0.00000000	      0.00000000	      0.00000000	      0.00000000	      1.74778153	    507.45315850	    -32.34511837	     -0.77515570	     -0.00200000	      0.31617162	      0.00000000	      1.62822158	      0.00000000
      0.39900000	      0.00000000	      0.00000000	      0.00000000	      0.00000000	      0.00000000	      0.00000000	      0.00000000	      0.00000000	      0.00000000	      2.22585513	    509.85666923	    -32.23744780	     -0.77500022	     -0.00200000	      0.31602094	      0.00000000	      1.68467471	      0.00000000
      0.40000000	      0.00000000	      0.00000000	      0.00000000	      0.00000000	      0.00000000	      0.00000000	      0.00000000	      0.00000000	      0.00000000	      2.71418178	    512.30658218	    -32.13127032	     -0.77484719	     -0.00200000	      0.31587026	      0.00000000	      1.74111909	      0.00000000
      0.40100000	      0.00000000	      0.00000000	      0.00000000	      0.00000000	      0.00000000	      0.00000000	      0.00000000	      0.00000000	      0.00000000	      3.21568234	    514.81416263	    -32.02756941	     -0.77469734	     -0.00200000	      0.31571982	      0.00000000	      1.79747919	      0.00000000
